<svg width="99" height="99" viewBox="0 0 99 99" fill="none" xmlns="http://www.w3.org/2000/svg">
<path d="M72.1872 12.375C84.7172 12.375 94.8747 22.5325 94.8747 35.0625C94.8747 44.3173 90.0569 53.272 82.8663 54.9999C80.0926 55.6664 77.8837 59.2258 78.3583 63.2892C78.9936 68.7279 83.9119 74.2227 93.6502 78.5529C95.8185 79.5171 94.9106 82.7788 92.556 82.484C67.1766 79.3066 49.5844 62.7609 49.5 39.3518C49.4997 23.2528 59.0111 12.375 72.1872 12.375Z" fill="#C3EFE0"/>
<path d="M22.6872 12.375C35.2172 12.375 45.3747 22.5325 45.3747 35.0625C45.3747 44.3173 40.5569 53.272 33.3663 54.9999C30.5926 55.6664 28.3837 59.2258 28.8583 63.2892C29.4936 68.7279 34.4119 74.2227 44.1502 78.5529C46.3185 79.5171 45.4106 82.7788 43.056 82.484C17.6766 79.3066 0.0843975 62.7609 7.28567e-09 39.3518C-0.000303964 23.2528 9.51109 12.375 22.6872 12.375Z" fill="#C3EFE0"/>
</svg>
